<?xml version="1.0" encoding="utf-8"?>
<!-- Generator: Adobe Illustrator 21.1.0, SVG Export Plug-In . SVG Version: 6.00 Build 0)  -->
<svg version="1.1" id="Ñëîé_1" xmlns="http://www.w3.org/2000/svg" xmlns:xlink="http://www.w3.org/1999/xlink" x="0px" y="0px"
	 viewBox="0 0 76.1 66.1" style="enable-background:new 0 0 76.1 66.1;" xml:space="preserve">
<style type="text/css">
	.st0{fill-rule:evenodd;clip-rule:evenodd;fill:#fff;}
</style>
<path class="st0" d="M76.1,66.1l-5,0l-33-55.9L8.8,61h9.6l19.7-34.2L57.9,61h4.3l3,5.1h-4.3h-6L38.2,37L21.4,66.1H0l19.1-33.1
	L38.2,0L71,56.4V25.9h-5v11.4l-5.1-8v-8.5h15.2V66.1L76.1,66.1z M71,10.5V5.4h-4.7v5.2H71L71,10.5z M76.1,0.2H71h-9.9v0.3v4.8v5.2
	v5.2v0l15,0l0,0h0v-5.2L76.1,0.2L76.1,0.2z"/>
</svg>
